<svg width="74" height="77" viewBox="0 0 74 77" fill="none" xmlns="http://www.w3.org/2000/svg">
<path d="M10.835 55.5566V70.1281C10.835 73.2051 21.1964 75.6995 33.9778 75.6995C46.7593 75.6995 57.1207 73.2051 57.1207 70.1281V55.5566" stroke="#CACACA" stroke-width="2" stroke-linejoin="round"/>
<path d="M14.9785 52.8643C12.3666 53.6276 10.835 54.5558 10.835 55.5568C10.835 58.1604 21.1964 60.2711 33.9778 60.2711C46.7593 60.2711 57.1207 58.1604 57.1207 55.5568C57.1207 54.5558 55.589 53.6276 52.9771 52.8643" stroke="#CACACA" stroke-width="2" stroke-linejoin="round"/>
<path fill-rule="evenodd" clip-rule="evenodd" d="M15.5664 2.77671C15.554 3.74313 14.7605 4.51651 13.7941 4.50411L13.5441 4.5009C8.57397 4.43712 4.49315 8.41452 4.42937 13.3847L4.39986 15.6845C4.38781 16.6233 3.61699 17.3746 2.67818 17.3625C1.73938 17.3505 0.988091 16.5797 1.00014 15.6409L1.02965 13.341C1.12178 6.16193 6.40992 0.909061 13.589 1.00119L13.839 1.0044C14.8054 1.0168 15.5788 1.81029 15.5664 2.77671Z" stroke="#CACACA" stroke-width="2" stroke-linejoin="round"/>
<path d="M10.835 34.9854V49.5568C10.835 52.6338 21.1964 55.1282 33.9778 55.1282C46.7593 55.1282 57.1207 52.6338 57.1207 49.5568V34.9854" stroke="#CACACA" stroke-width="2" stroke-linejoin="round"/>
<ellipse cx="33.9778" cy="34.9853" rx="23.1429" ry="4.71429" stroke="#CACACA" stroke-width="2" stroke-linejoin="round"/>
<path d="M33.9788 34.5564C46.7602 34.5564 57.1217 32.062 57.1217 28.985V14.4136H10.8359V28.985C10.8359 32.062 21.1973 34.5564 33.9788 34.5564Z" fill="white" stroke="#CACACA" stroke-width="2" stroke-linejoin="round"/>
<ellipse cx="33.9785" cy="13.9851" rx="24" ry="5.14286" fill="#CACACA"/>
<circle cx="59.9785" cy="56.8423" r="13" fill="white" stroke="#CACACA" stroke-width="2"/>
<circle cx="59.9785" cy="60.0923" r="1.25" fill="#CACACA"/>
<path d="M54.9785 54.283C56.139 52.7974 57.9472 51.8423 59.9785 51.8423C62.0098 51.8423 63.818 52.7974 64.9785 54.283" stroke="#CACACA" stroke-width="2" stroke-linecap="round"/>
<path d="M56.4785 57.5508C57.2909 56.5109 58.5566 55.8423 59.9785 55.8423C61.4004 55.8423 62.6662 56.5109 63.4785 57.5508" stroke="#CACACA" stroke-width="2" stroke-linecap="round"/>
</svg>
