<svg width="64" height="65" viewBox="0 0 64 65" fill="none" xmlns="http://www.w3.org/2000/svg">
<path d="M8.5127 27.9212C8.5127 16.4104 17.844 7.0791 29.3548 7.0791C40.8656 7.0791 50.1969 16.4104 50.1969 27.9212V49.7633H8.5127V27.9212Z" fill="white" stroke="#CACACA" stroke-width="2" stroke-linejoin="round"/>
<path d="M0 52C0 49.7909 1.79086 48 4 48H56C58.2091 48 60 49.7909 60 52C60 54.2091 58.2091 56 56 56H4C1.79086 56 0 54.2091 0 52Z" fill="#CACACA"/>
<path d="M30 63.1846C34.4183 63.1846 38 59.6028 38 55.1846H22C22 59.6028 25.5817 63.1846 30 63.1846Z" stroke="#CACACA" stroke-width="2" stroke-linejoin="round"/>
<circle cx="29.3543" cy="3.60526" r="2.60526" fill="#CACACA" stroke="#CACACA" stroke-width="2" stroke-linejoin="round"/>
<circle cx="2.88571" cy="4.88571" r="1.88571" stroke="#CACACA" stroke-width="2" stroke-linejoin="round"/>
<circle cx="50" cy="36" r="13" fill="white" stroke="#CACACA" stroke-width="2"/>
<path d="M48.5 29.5C48.5 28.6716 49.1716 28 50 28C50.8284 28 51.5 28.6716 51.5 29.5V35.5C51.5 36.3284 50.8284 37 50 37C49.1716 37 48.5 36.3284 48.5 35.5V29.5Z" stroke="#CACACA" stroke-width="2" stroke-linejoin="round"/>
<path d="M48.5 42.5C48.5 43.3284 49.1716 44 50 44C50.8284 44 51.5 43.3284 51.5 42.5C51.5 41.6716 50.8284 41 50 41C49.1716 41 48.5 41.6716 48.5 42.5Z" stroke="#CACACA" stroke-width="2" stroke-linejoin="round"/>
<path d="M3.28044 16.9454L3.26695 17.0162C3.1189 17.7934 3.62243 18.5454 4.39743 18.7046C5.18832 18.8671 5.95919 18.3509 6.11027 17.5578L6.11492 17.5333L6.1152 17.532C6.1152 17.532 6.11562 17.5299 6.11595 17.5283C6.11736 17.5214 6.12025 17.5077 6.12476 17.4873C6.13378 17.4467 6.14927 17.3798 6.17242 17.2896C6.21874 17.109 6.2955 16.8354 6.41199 16.4906C6.64538 15.7998 7.03566 14.831 7.65519 13.754C8.89063 11.6064 11.0314 9.03587 14.6793 7.35232C15.4123 7.01403 15.7471 6.15194 15.4294 5.40976L15.3984 5.33722C15.0849 4.60482 14.2287 4.27568 13.5054 4.60951C9.20438 6.59448 6.64812 9.65176 5.17371 12.2148C4.43832 13.4932 3.97049 14.6504 3.68449 15.4969C3.54129 15.9207 3.44303 16.2686 3.37927 16.5172C3.34737 16.6416 3.32406 16.7413 3.30803 16.8136C3.30001 16.8497 3.29381 16.879 3.28927 16.9011L3.28367 16.9287L3.28177 16.9385L3.28103 16.9423L3.28072 16.9439" stroke="#CACACA" stroke-width="2" stroke-linejoin="round"/>
</svg>
